<?xml version="1.0" standalone="no"?><!DOCTYPE svg PUBLIC "-//W3C//DTD SVG 1.1//EN" "http://www.w3.org/Graphics/SVG/1.1/DTD/svg11.dtd"><svg t="1679254520376" class="icon" viewBox="0 0 1024 1024" version="1.1" xmlns="http://www.w3.org/2000/svg" p-id="17713" xmlns:xlink="http://www.w3.org/1999/xlink" width="200" height="200"><path d="M512.26439869 896.72044372c-6.14218515 0-12.30470862-2.33891155-17.00287009-7.03707305-9.39632297-9.39632297-9.39632297-24.60941725 0-33.98540184l357.42636272-357.26365589c35.83619276-35.81585439 55.58474164-83.57032686 55.58474163-134.41623027 0-50.86624177-19.74854887-98.55969921-55.58474163-134.25352341-74.1333272-74.1333272-194.69913343-74.11298882-268.77144551-0.04067674l-54.46613176 54.62883865c-9.39632297 9.39632297-24.58907888 9.43699967-34.00574022 0.06101509-9.39632297-9.3759846-9.41666129-24.60941725-0.04067671-33.98540186l54.4864701-54.64917701c92.86495803-92.86495803 243.91796791-92.86495803 336.76258761-0.04067673 44.92744027 44.7647334 69.69956442 104.53917746 69.69956441 168.27960201 0 63.67940946-24.75178578 123.51486861-69.69956441 168.44230889L529.26726879 889.68337067a23.942319 23.942319 0 0 1-17.0028701 7.03707305z" fill="#2c2c2c" p-id="17714"></path><path d="M798.46581991 479.66200542c-6.14218515 0-12.30470862-2.33891155-17.00287009-7.03707304-9.39632297-9.3759846-9.39632297-24.60941725 0-33.98540187 21.82306175-21.82306175 33.8430333-50.88658013 33.84303333-81.8212278 0-30.95498603-11.99963322-59.95748933-33.80235661-81.67885923-9.39632297-9.3759846-9.43699967-24.58907888-0.06101509-33.98540187 9.3759846-9.39632297 24.58907888-9.45733804 33.98540187-0.06101509 30.93464764 30.79227911 47.95785611 71.91644581 47.9578561 115.74561456 0 43.76815367-17.02320847 84.91265871-47.91717939 115.80662968a24.12739809 24.12739809 0 0 1-17.00287012 7.01673466zM512.26439869 896.72044372c-6.14218515 0-12.30470862-2.33891155-17.00287009-7.03707305L138.03854946 532.44005318c-45.00879371-44.98845536-69.78091787-104.82391451-69.78091785-168.42197051 0-63.61839439 24.79246252-123.4131768 69.80125622-168.32027871 45.02913206-45.04947044 104.78323778-69.84193295 168.27960197-69.84193297 63.57771765 0 123.4131768 24.81280087 168.4423089 69.86227134l54.64917699 54.649177c9.39632297 9.39632297 9.39632297 24.60941725 0 33.98540184-9.39632297 9.39632297-24.60941725 9.39632297-33.98540186 0l-54.649177-54.64917702c-35.9582229-35.9582229-83.7126954-55.78812528-134.45690703-55.78812523-50.62218147 0-98.33597723 19.80956397-134.29420013 55.78812523-35.91754618 35.8565311-55.70677178 83.54998849-55.7067718 134.31453852s19.78922563 98.49868413 55.7067718 134.41623027l340.2404474 340.2404474 285.75397727-285.73363891c9.39632297-9.39632297 24.60941725-9.39632297 33.98540183 0 9.39632297 9.39632297 9.39632297 24.60941725 0 33.98540184L529.26726879 889.68337067a23.942319 23.942319 0 0 1-17.0028701 7.03707305z" fill="#2c2c2c" p-id="17715"></path></svg>