<?xml version="1.0" standalone="no"?><!DOCTYPE svg PUBLIC "-//W3C//DTD SVG 1.1//EN" "http://www.w3.org/Graphics/SVG/1.1/DTD/svg11.dtd"><svg t="1679252368914" class="icon" viewBox="0 0 1024 1024" version="1.1" xmlns="http://www.w3.org/2000/svg" p-id="6721" xmlns:xlink="http://www.w3.org/1999/xlink" width="200" height="200"><path d="M844.231 391.396h-184.32c-13.653-2.276-18.204-15.93-20.48-22.756V202.524c0-45.51-36.409-81.92-81.92-81.92-40.96 0-75.093 31.858-81.92 70.543-25.031 157.013-120.604 209.35-182.044 225.28 2.275 6.826 2.275 11.377 2.275 15.929v441.457c0 9.103-2.275 18.205-6.826 27.307h446.008c43.236-9.102 72.818-25.031 93.298-68.267l93.298-327.68c18.204-59.164-11.378-116.053-77.369-113.777zM257.138 876.089V432.356c0-13.654-18.205-25.032-38.685-25.032h-61.44c-31.857 0-59.164 27.307-59.164 59.165V839.68c0 34.133 25.031 61.44 59.164 61.44h61.44c20.48 0 38.685-11.378 38.685-25.031z m0 0" p-id="6722" fill="#d81e06"></path></svg>